<?xml version="1.0" encoding="UTF-8" standalone="no"?>
<!-- Created with Inkscape (http://www.inkscape.org/) -->

<svg
   width="140.84171mm"
   height="40.000061mm"
   viewBox="0 0 140.84171 40.000061"
   version="1.1"
   id="svg1706"
   inkscape:version="1.2.2 (1:1.2.2+202212051550+b0a8486541)"
   sodipodi:docname="gvid-full-blue-40mm.svg"
   xmlns:inkscape="http://www.inkscape.org/namespaces/inkscape"
   xmlns:sodipodi="http://sodipodi.sourceforge.net/DTD/sodipodi-0.dtd"
   xmlns="http://www.w3.org/2000/svg"
   xmlns:svg="http://www.w3.org/2000/svg">
  <sodipodi:namedview
     id="namedview1708"
     pagecolor="#ffffff"
     bordercolor="#000000"
     borderopacity="0.25"
     inkscape:showpageshadow="2"
     inkscape:pageopacity="0.0"
     inkscape:pagecheckerboard="0"
     inkscape:deskcolor="#d1d1d1"
     inkscape:document-units="mm"
     showgrid="false"
     inkscape:zoom="1.4503086"
     inkscape:cx="266.495"
     inkscape:cy="131.69611"
     inkscape:window-width="1920"
     inkscape:window-height="1051"
     inkscape:window-x="0"
     inkscape:window-y="0"
     inkscape:window-maximized="1"
     inkscape:current-layer="layer1" />
  <defs
     id="defs1703">
    <clipPath
       clipPathUnits="userSpaceOnUse"
       id="clipPath1520">
      <path
         d="M 0,841.89 H 595.276 V 0 H 0 Z"
         id="path1518" />
    </clipPath>
    <clipPath
       clipPathUnits="userSpaceOnUse"
       id="clipPath2325">
      <g
         id="g2329"
         transform="translate(-314.3314,-618.6314)">
        <path
           d="M 0,841.89 H 595.276 V 0 H 0 Z"
           id="path2327" />
      </g>
    </clipPath>
    <clipPath
       clipPathUnits="userSpaceOnUse"
       id="clipPath2319">
      <g
         id="g2323"
         transform="translate(-328.101,-629.858)">
        <path
           d="M 0,841.89 H 595.276 V 0 H 0 Z"
           id="path2321" />
      </g>
    </clipPath>
    <clipPath
       clipPathUnits="userSpaceOnUse"
       id="clipPath2313">
      <g
         id="g2317"
         transform="translate(-351.9545,-629.858)">
        <path
           d="M 0,841.89 H 595.276 V 0 H 0 Z"
           id="path2315" />
      </g>
    </clipPath>
    <clipPath
       clipPathUnits="userSpaceOnUse"
       id="clipPath2307">
      <g
         id="g2311"
         transform="translate(-383.3754,-634.981)">
        <path
           d="M 0,841.89 H 595.276 V 0 H 0 Z"
           id="path2309" />
      </g>
    </clipPath>
    <clipPath
       clipPathUnits="userSpaceOnUse"
       id="clipPath2301">
      <g
         id="g2305"
         transform="translate(-394.5697,-612.0494)">
        <path
           d="M 0,841.89 H 595.276 V 0 H 0 Z"
           id="path2303" />
      </g>
    </clipPath>
    <clipPath
       clipPathUnits="userSpaceOnUse"
       id="clipPath2295">
      <g
         id="g2299">
        <path
           d="M 0,841.89 H 595.276 V 0 H 0 Z"
           id="path2297" />
      </g>
    </clipPath>
    <clipPath
       clipPathUnits="userSpaceOnUse"
       id="clipPath2289">
      <g
         id="g2293"
         transform="translate(-422.4037,-619.0025)">
        <path
           d="M 0,841.89 H 595.276 V 0 H 0 Z"
           id="path2291" />
      </g>
    </clipPath>
    <clipPath
       clipPathUnits="userSpaceOnUse"
       id="clipPath2283">
      <g
         id="g2287"
         transform="translate(-443.684,-629.858)">
        <path
           d="M 0,841.89 H 595.276 V 0 H 0 Z"
           id="path2285" />
      </g>
    </clipPath>
    <clipPath
       clipPathUnits="userSpaceOnUse"
       id="clipPath2277">
      <g
         id="g2281"
         transform="translate(-483.9916,-620.0113)">
        <path
           d="M 0,841.89 H 595.276 V 0 H 0 Z"
           id="path2279" />
      </g>
    </clipPath>
    <clipPath
       clipPathUnits="userSpaceOnUse"
       id="clipPath2271">
      <g
         id="g2275"
         transform="translate(-503.9457,-620.2242)">
        <path
           d="M 0,841.89 H 595.276 V 0 H 0 Z"
           id="path2273" />
      </g>
    </clipPath>
    <clipPath
       clipPathUnits="userSpaceOnUse"
       id="clipPath2265">
      <g
         id="g2269"
         transform="translate(-516.309,-629.858)">
        <path
           d="M 0,841.89 H 595.276 V 0 H 0 Z"
           id="path2267" />
      </g>
    </clipPath>
    <clipPath
       clipPathUnits="userSpaceOnUse"
       id="clipPath2259">
      <g
         id="g2263"
         transform="translate(-554.5219,-620.5152)">
        <path
           d="M 0,841.89 H 595.276 V 0 H 0 Z"
           id="path2261" />
      </g>
    </clipPath>
    <clipPath
       clipPathUnits="userSpaceOnUse"
       id="clipPath2253">
      <g
         id="g2257"
         transform="translate(-305.8461,-553.6861)">
        <path
           d="M 0,841.89 H 595.276 V 0 H 0 Z"
           id="path2255" />
      </g>
    </clipPath>
    <clipPath
       clipPathUnits="userSpaceOnUse"
       id="clipPath2247">
      <g
         id="g2251"
         transform="translate(-338.6039,-604.9918)">
        <path
           d="M 0,841.89 H 595.276 V 0 H 0 Z"
           id="path2249" />
      </g>
    </clipPath>
    <clipPath
       clipPathUnits="userSpaceOnUse"
       id="clipPath2241">
      <g
         id="g2245"
         transform="translate(-371.0531,-570.232)">
        <path
           d="M 0,841.89 H 595.276 V 0 H 0 Z"
           id="path2243" />
      </g>
    </clipPath>
    <clipPath
       clipPathUnits="userSpaceOnUse"
       id="clipPath2235">
      <g
         id="g2239"
         transform="translate(-386.8422,-551.524)">
        <path
           d="M 0,841.89 H 595.276 V 0 H 0 Z"
           id="path2237" />
      </g>
    </clipPath>
    <clipPath
       clipPathUnits="userSpaceOnUse"
       id="clipPath2229">
      <g
         id="g2233"
         transform="translate(-430.5687,-596.275)">
        <path
           d="M 0,841.89 H 595.276 V 0 H 0 Z"
           id="path2231" />
      </g>
    </clipPath>
    <clipPath
       clipPathUnits="userSpaceOnUse"
       id="clipPath2223">
      <g
         id="g2227"
         transform="translate(-462.4388,-581.1812)">
        <path
           d="M 0,841.89 H 595.276 V 0 H 0 Z"
           id="path2225" />
      </g>
    </clipPath>
    <clipPath
       clipPathUnits="userSpaceOnUse"
       id="clipPath2217">
      <g
         id="g2221"
         transform="translate(-491.3451,-546.316)">
        <path
           d="M 0,841.89 H 595.276 V 0 H 0 Z"
           id="path2219" />
      </g>
    </clipPath>
    <clipPath
       clipPathUnits="userSpaceOnUse"
       id="clipPath2211">
      <g
         id="g2215"
         transform="translate(-553.639,-604.9918)">
        <path
           d="M 0,841.89 H 595.276 V 0 H 0 Z"
           id="path2213" />
      </g>
    </clipPath>
    <clipPath
       clipPathUnits="userSpaceOnUse"
       id="clipPath2205">
      <g
         id="g2209">
        <path
           d="M 0,841.89 H 595.276 V 0 H 0 Z"
           id="path2207" />
      </g>
    </clipPath>
    <clipPath
       clipPathUnits="userSpaceOnUse"
       id="clipPath2198">
      <g
         id="g2202"
         transform="translate(-253.4691,-600.5728)">
        <path
           d="M 0,841.89 H 595.276 V 0 H 0 Z"
           id="path2200" />
      </g>
    </clipPath>
    <clipPath
       clipPathUnits="userSpaceOnUse"
       id="clipPath1520-3">
      <path
         d="M 0,841.89 H 595.276 V 0 H 0 Z"
         id="path1518-6" />
    </clipPath>
    <clipPath
       clipPathUnits="userSpaceOnUse"
       id="clipPath2089">
      <g
         id="g2093"
         transform="translate(-71.8861,-599.6724)">
        <path
           d="M 0,841.89 H 595.276 V 0 H 0 Z"
           id="path2091" />
      </g>
    </clipPath>
    <clipPath
       clipPathUnits="userSpaceOnUse"
       id="clipPath2083">
      <g
         id="g2087"
         transform="translate(-105.9672,-590.0279)">
        <path
           d="M 0,841.89 H 595.276 V 0 H 0 Z"
           id="path2085" />
      </g>
    </clipPath>
    <clipPath
       clipPathUnits="userSpaceOnUse"
       id="clipPath2077">
      <g
         id="g2081"
         transform="translate(-64.3822,-542.5142)">
        <path
           d="M 0,841.89 H 595.276 V 0 H 0 Z"
           id="path2079" />
      </g>
    </clipPath>
    <clipPath
       clipPathUnits="userSpaceOnUse"
       id="clipPath2071">
      <g
         id="g2075"
         transform="translate(-91.0629,-542.5142)">
        <path
           d="M 0,841.89 H 595.276 V 0 H 0 Z"
           id="path2073" />
      </g>
    </clipPath>
    <clipPath
       clipPathUnits="userSpaceOnUse"
       id="clipPath2065">
      <g
         id="g2069"
         transform="translate(-133.0424,-564.6392)">
        <path
           d="M 0,841.89 H 595.276 V 0 H 0 Z"
           id="path2067" />
      </g>
    </clipPath>
    <clipPath
       clipPathUnits="userSpaceOnUse"
       id="clipPath4065">
      <g
         id="g4071">
        <g
           id="g4069"
           transform="matrix(0.35277777,0,0,-0.35277777,-2.0816795,263.32934)">
          <path
             d="M 0,841.89 H 595.276 V 0 H 0 Z"
             id="path4067" />
        </g>
      </g>
    </clipPath>
  </defs>
  <g
     inkscape:label="Vrstva 1"
     inkscape:groupmode="layer"
     id="layer1"
     transform="translate(-56.655153,-38.911143)">
    <path
       id="path1424"
       style="fill:#2744a0;fill-opacity:1;fill-rule:nonzero;stroke:none;stroke-width:0.352778"
       d="m 133.16484,39.322134 -0.87074,1.104842 h 0.42116 l 1.00149,-0.842325 z m -30.89062,1.694987 c -1.95685,0 -3.239592,1.619926 -3.239592,3.389458 v 0.0186 c 0,1.844673 1.226182,3.370854 3.295922,3.370854 1.06715,0 1.98484,-0.458659 2.57504,-0.982886 v -2.528011 h -2.65927 v 0.449068 h 2.19005 v 1.882056 c -0.47696,0.402872 -1.25447,0.748791 -2.08773,0.748791 -1.75084,0 -2.8081,-1.263733 -2.8081,-2.958475 v -0.0186 c 0,-1.582559 1.11369,-2.93057 2.70578,-2.93057 0.99201,0 1.59127,0.336912 2.10633,0.785998 l 0.31884,-0.364835 c -0.65581,-0.542925 -1.33011,-0.861447 -2.39727,-0.861448 z m 88.48608,0 c -1.98543,0 -3.30523,1.601229 -3.30523,3.389458 v 0.0186 c 0,1.788229 1.30138,3.370854 3.2861,3.370854 1.98544,0 3.30626,-1.600876 3.30626,-3.389457 v -0.0186 c 0,-1.788934 -1.30171,-3.370854 -3.28713,-3.370855 z m -58.50393,0.06563 -3.05252,6.600631 h 0.50591 l 0.83251,-1.83503 h 3.86746 l 0.83354,1.83503 h 0.53382 l -3.05253,-6.600631 z m -26.25731,0.04651 2.80861,3.960482 v 2.59364 h 0.4868 v -2.602425 l 2.80913,-3.951697 h -0.58085 l -2.46238,3.520199 -2.45308,-3.520199 z m 7.6662,0 v 6.554122 h 0.46819 v -5.692676 l 2.59364,3.773413 h 0.0372 l 2.59365,-3.773413 v 5.692676 h 0.48679 v -6.554122 h -0.45837 l -2.63137,3.876249 -2.63084,-3.876249 z m 8.41499,0 v 6.554122 h 0.46819 v -5.823934 l 4.61625,5.823934 h 0.36484 v -6.554122 h -0.46819 v 5.701978 l -4.5222,-5.701978 z m 15.19287,0 v 0.439767 h 4.32532 l -4.48448,5.843054 v 0.271301 h 5.17746 V 47.2431 h -4.485 l 4.485,-5.842021 v -0.271818 z m 6.97322,0 v 6.554122 h 0.48731 v -6.554122 z m 10.19369,0 v 6.554122 h 0.46819 v -5.692676 l 2.59416,3.773413 h 0.0367 l 2.59364,-3.773413 v 5.692676 h 0.48731 v -6.554122 h -0.45837 l -2.63188,3.876249 -2.63085,-3.876249 z m 11.51351,0 v 6.554122 h 2.84685 c 1.41394,0 2.35025,-0.692631 2.35025,-1.788004 v -0.0186 c 0,-0.908402 -0.69297,-1.357354 -1.48001,-1.563729 0.5341,-0.215547 1.11466,-0.664722 1.11466,-1.554427 v -0.0186 c 0,-0.412044 -0.14969,-0.758626 -0.42168,-1.029911 -0.36477,-0.365125 -0.96365,-0.580844 -1.70377,-0.580844 z m 7.04815,0 v 6.554122 h 0.48783 v -2.71508 h 2.14405 l 2.08825,2.71508 h 0.61753 l -2.16266,-2.799312 c 1.10419,-0.149578 1.91978,-0.776675 1.91978,-1.872754 v -0.01912 c 0,-0.467783 -0.18774,-0.907783 -0.49713,-1.216464 -0.39299,-0.393346 -1.03929,-0.646472 -1.84433,-0.646472 z m 7.059,0 v 6.554122 h 0.46767 v -5.823934 l 4.61626,5.823934 h 0.36483 v -6.554122 h -0.46767 v 5.701978 l -4.5222,-5.701978 z m -33.1277,5.17e-4 V 44.959 c 0,1.834795 1.11415,2.827734 2.68718,2.827734 1.59173,0 2.68718,-1.001641 2.68718,-2.884062 v -3.772896 h -0.4868 V 44.959 c 0,1.581854 -0.8527,2.387451 -2.18126,2.387451 -1.38606,0 -2.21899,-0.889665 -2.21899,-2.434477 v -3.782198 z m 43.80818,0.327629 c 1.62031,0 2.80035,1.329572 2.80035,2.949174 v 0.0186 c 0,1.619601 -1.16162,2.931087 -2.78122,2.931087 -1.61961,0 -2.79932,-1.329737 -2.79932,-2.94969 v -0.0186 c 0,-1.619954 1.16095,-2.93057 2.78019,-2.930571 z m -24.2998,0.121956 h 2.20968 c 1.0481,0 1.63814,0.486248 1.63814,1.207678 v 0.0186 c 0,0.870654 -0.70214,1.348238 -1.68568,1.348238 h -2.16214 z m 7.04815,0 h 2.23758 c 1.18887,0 1.88154,0.552127 1.88154,1.431954 v 0.0186 c 0,0.945797 -0.81442,1.4981 -1.90944,1.4981 h -2.20968 z m -41.00835,0.03721 1.72237,3.7915 h -3.45509 z m 33.9602,2.986381 h 2.21847 c 1.29222,0 1.9947,0.468433 1.9947,1.273824 v 0.0186 c 0,0.823736 -0.71194,1.33842 -1.83554,1.33842 h -2.37763 z m -19.22415,5.286499 2.59622,3.08715 h 1.88671 l 2.59622,-3.08715 h -1.85105 l -1.66967,1.912545 h -0.0491 l -1.65829,-1.912545 z m -31.93811,0.0124 -1.75441,3.08715 h 1.67018 l 2.17558,-3.08715 z m 75.85946,0 -1.75442,3.08715 h 1.6707 l 2.17506,-3.08715 z m -26.59631,3.662309 c -0.75354,0 -1.46254,0.09593 -2.12752,0.287837 -0.66534,0.191559 -1.25257,0.487424 -1.76268,0.886768 -0.51083,0.400049 -0.9156,0.906866 -1.2144,1.519287 -0.2988,0.612422 -0.44804,1.343471 -0.44804,2.193665 0,0.816679 0.14181,1.487347 0.42685,2.01228 0.28399,0.524933 0.66081,0.954238 1.12965,1.28726 0.46849,0.333727 1.00093,0.594022 1.59783,0.781347 0.5969,0.187325 1.20801,0.356663 1.83348,0.506946 0.47202,0.116417 0.92272,0.241657 1.35134,0.374654 0.42863,0.13335 0.80758,0.306107 1.13637,0.518832 0.32843,0.212019 0.59053,0.480727 0.78703,0.805635 0.19614,0.325261 0.29455,0.737412 0.29455,1.237651 0,0.607835 -0.11204,1.114487 -0.33641,1.51877 -0.22437,0.404283 -0.52911,0.722828 -0.91364,0.956014 -0.38417,0.233539 -0.83178,0.400039 -1.34048,0.500228 -0.50871,0.100189 -1.04277,0.150378 -1.60404,0.150378 -0.34431,0 -0.71288,-0.02535 -1.10588,-0.07545 -0.39193,-0.0501 -0.78129,-0.1187 -1.16582,-0.206189 -0.38417,-0.08749 -0.75687,-0.193608 -1.11776,-0.318844 -0.36018,-0.124883 -0.68449,-0.2628 -0.97307,-0.412378 v 1.862419 c 0.1838,0.116769 0.43674,0.233433 0.75706,0.34985 0.31997,0.117121 0.67852,0.221272 1.07539,0.312642 0.39652,0.09137 0.81332,0.164263 1.25005,0.218591 0.4371,0.05397 0.8634,0.08113 1.28003,0.08113 0.90522,0 1.73846,-0.09773 2.5001,-0.293522 0.76095,-0.195439 1.42063,-0.495568 1.97766,-0.900204 0.5581,-0.40393 0.99426,-0.920421 1.31,-1.549776 0.31609,-0.629002 0.47439,-1.377016 0.47439,-2.24379 0,-0.849841 -0.14631,-1.545862 -0.4377,-2.087728 -0.2921,-0.541513 -0.67349,-0.980658 -1.14515,-1.318266 -0.47096,-0.337608 -1.00854,-0.602192 -1.61179,-0.79375 -0.60325,-0.191911 -1.21597,-0.366119 -1.83968,-0.524516 -0.46319,-0.116416 -0.9093,-0.241985 -1.33687,-0.375687 -0.4265,-0.13335 -0.80182,-0.303622 -1.12603,-0.512114 -0.32314,-0.208139 -0.58152,-0.473075 -0.77308,-0.79375 -0.19191,-0.320675 -0.28732,-0.726922 -0.28732,-1.219047 0,-0.441325 0.0717,-0.843825 0.21601,-1.206128 0.14428,-0.362302 0.36442,-0.670303 0.66146,-0.925008 0.29633,-0.254 0.66903,-0.449461 1.11776,-0.587044 0.44838,-0.137583 0.97741,-0.206706 1.58595,-0.206706 0.80962,0.0081 1.56881,0.104746 2.2779,0.287838 0.70943,0.183444 1.39587,0.420871 2.06085,0.712618 v -1.88774 c -0.61665,-0.274814 -1.29538,-0.497949 -2.03656,-0.668693 -0.7419,-0.171097 -1.54019,-0.256315 -2.39779,-0.256315 z m -65.710721,0.312641 6.097821,16.72456 h 1.70997 l 6.09834,-16.72456 h -1.95957 l -3.08715,8.599991 c -0.66993,1.857726 -1.29551,3.699646 -1.87689,5.524211 h -0.0481 c -0.58102,-1.824565 -1.21057,-3.666485 -1.88826,-5.524211 l -3.08715,-8.599991 z m 14.680761,0 v 16.72456 h 1.95905 v -16.72456 z m 4.22403,0 v 16.72456 h 3.64164 c 0.72954,0 1.40663,-0.03126 2.0314,-0.09405 0.62477,-0.06244 1.20579,-0.172685 1.74201,-0.330729 0.93768,-0.275167 1.75728,-0.662482 2.45825,-1.16272 0.70097,-0.499886 1.28644,-1.094076 1.75493,-1.781287 0.46884,-0.687563 0.81913,-1.459708 1.05161,-2.318721 0.23213,-0.857955 0.3483,-1.774626 0.3483,-2.749703 0,-0.96661 -0.1142,-1.868801 -0.34209,-2.706295 -0.2286,-0.837493 -0.57316,-1.591411 -1.03353,-2.262394 -0.46073,-0.670277 -1.04208,-1.252144 -1.74305,-1.743563 -0.70132,-0.491771 -1.5204,-0.875504 -2.45773,-1.150317 -0.53728,-0.158044 -1.11757,-0.268805 -1.74305,-0.331246 -0.62476,-0.06244 -1.30221,-0.09353 -2.0314,-0.09353 z m 14.69213,0 v 16.72456 h 10.20402 v -1.837614 h -8.24497 v -5.812565 h 6.93498 v -1.837097 h -6.93498 V 55.7139 h 7.80056 v -1.837097 z m 11.74812,0 v 16.72456 h 1.95905 v -8.536946 c 0,-2.03341 -0.052,-3.813119 -0.15606,-5.338176 h 0.0718 c 0.8576,1.408287 1.83067,2.925217 2.92075,4.55011 l 6.31021,9.325012 h 1.95853 v -16.72456 h -1.97042 v 8.899715 c 0,1.691567 0.0515,3.349644 0.15555,4.97489 h -0.0718 c -0.96132,-1.558218 -1.93474,-3.075147 -2.92075,-4.55011 l -6.30918,-9.324495 z m 27.07741,0 v 16.72456 h 1.95957 v -8.187614 h 0.0238 l 7.83673,8.187614 h 1.95854 1.77198 l 1.9203,-5.037935 h 6.72414 l 1.92029,5.037935 h 2.12752 l -6.5505,-16.72456 h -1.69447 l -6.45336,16.47703 -7.71012,-8.152474 7.4998,-8.324556 h -1.95957 l -7.39128,8.262544 h -0.0238 V 53.876803 Z M 119.69538,55.7139 h 1.4981 c 0.75495,0 1.43321,0.02929 2.03399,0.08785 0.60078,0.05821 1.14459,0.167 1.63142,0.325044 1.27494,0.41663 2.25347,1.125164 2.93574,2.124935 0.68192,1.000124 1.02319,2.304111 1.02319,3.912423 0,1.624893 -0.34127,2.958357 -1.02319,3.999756 -0.68227,1.041751 -1.6608,1.770833 -2.93574,2.187463 -0.48683,0.158397 -1.03064,0.266673 -1.63142,0.324528 -0.60078,0.05891 -1.27904,0.08785 -2.03399,0.08785 h -1.4981 z m 70.38589,0.762744 h 0.0481 c 0.68403,2.051753 1.35585,3.944166 2.01589,5.676656 l 0.60927,1.573031 h -5.32939 l 0.60048,-1.574581 c 0.65299,-1.701799 1.33849,-3.593719 2.05569,-5.675106 z m -44.06346,16.91473 -0.42013,0.5333 h 0.20308 l 0.4837,-0.406693 z m -36.69906,0.04496 -0.42064,0.533301 h 0.2036 l 0.4837,-0.406693 z m -4.74079,0.05013 0.4656,0.483175 h 0.20774 l 0.46561,-0.483175 h -0.23513 l -0.3297,0.275436 -0.33021,-0.275436 z m 16.61656,0 0.4656,0.483175 h 0.20774 l 0.4656,-0.483175 h -0.23512 l -0.3297,0.275436 -0.33021,-0.275436 z m 14.94895,0.722954 c -0.95802,0 -1.59525,0.772428 -1.59525,1.635559 v 0.0093 c 0,0.86313 0.62792,1.626774 1.58595,1.626774 0.95803,0 1.59525,-0.772946 1.59525,-1.636076 v -0.0088 c 0,-0.86313 -0.62792,-1.626774 -1.58595,-1.626774 z m 17.7059,0 c -0.95803,0 -1.59525,0.772428 -1.59525,1.635559 v 0.0093 c 0,0.86313 0.62792,1.626774 1.58595,1.626774 0.95803,0 1.59525,-0.772946 1.59525,-1.636076 v -0.0088 c 0,-0.86313 -0.62792,-1.626774 -1.58595,-1.626774 z m 10.16785,0 c -0.94447,0 -1.56373,0.781467 -1.56373,1.635559 v 0.0093 c 0,0.890243 0.59191,1.626774 1.59061,1.626774 0.51516,0 0.95812,-0.221326 1.24281,-0.47439 V 75.78658 h -1.28364 v 0.216525 h 1.05782 v 0.908471 c -0.23047,0.194318 -0.6055,0.361735 -1.00769,0.361735 -0.84506,0 -1.35599,-0.610396 -1.35599,-1.428336 v -0.0088 c 0,-0.763712 0.53763,-1.414384 1.30586,-1.414384 0.47901,0 0.76844,0.162392 1.01699,0.379305 l 0.15348,-0.176217 c -0.31633,-0.262101 -0.64136,-0.415478 -1.15652,-0.415478 z m 27.71046,0 c -0.91284,0 -1.58182,0.740796 -1.58182,1.635559 v 0.0093 c 0,0.90832 0.66872,1.626774 1.57252,1.626774 0.56036,0 0.92237,-0.2215 1.25677,-0.551388 L 192.8165,76.77618 c -0.32085,0.316331 -0.6324,0.492476 -1.08882,0.492476 -0.75468,0 -1.3379,-0.623821 -1.3379,-1.423685 v -0.0088 c 0,-0.795346 0.57405,-1.414384 1.33325,-1.414384 0.47449,0 0.79095,0.198983 1.0666,0.465604 l 0.16743,-0.172082 c -0.32537,-0.298254 -0.66451,-0.505912 -1.22938,-0.505912 z m -79.16003,0.0088 c -0.58747,0 -1.01699,0.361497 -1.01699,0.831474 v 0.0093 c 0,0.479015 0.30741,0.73674 1.0666,0.890385 0.71853,0.144609 0.89504,0.338938 0.89504,0.673345 v 0.0088 c 0,0.36152 -0.32545,0.628385 -0.79995,0.628385 -0.46546,0 -0.78634,-0.149406 -1.1343,-0.470256 l -0.15348,0.176217 c 0.3796,0.338926 0.76821,0.506429 1.27434,0.506429 0.61006,0 1.048,-0.352866 1.048,-0.863513 v -0.0088 c 0,-0.460938 -0.30714,-0.723171 -1.03921,-0.872298 -0.75015,-0.153647 -0.92191,-0.357024 -0.92191,-0.691431 v -0.0088 c 0,-0.329888 0.30762,-0.596863 0.77308,-0.596863 0.34796,0 0.64587,0.0995 0.94413,0.357084 l 0.14934,-0.185001 c -0.32085,-0.257583 -0.62375,-0.384473 -1.08469,-0.384473 z m 33.01194,0.02274 -1.47329,3.185852 h 0.24391 l 0.40256,-0.885734 h 1.86603 l 0.40205,0.885734 h 0.25786 l -1.47329,-3.185852 z m 23.30452,0 -1.47329,3.185852 h 0.24391 l 0.40256,-0.885734 h 1.86603 l 0.40205,0.885734 h 0.25786 l -1.47329,-3.185852 z m 17.66921,0 -1.4733,3.185852 h 0.24443 l 0.40204,-0.885734 h 1.86604 l 0.40256,0.885734 h 0.25735 l -1.4733,-3.185852 z m -87.08616,0.02274 v 3.163114 h 0.235127 v -1.179256 h 0.853693 c 0.65977,0 1.23404,-0.343397 1.23404,-1.00769 v -0.0093 c 0,-0.610066 -0.4792,-0.966866 -1.17513,-0.966866 z m 4.56406,0 v 3.163114 h 0.23513 v -1.310514 h 1.03456 l 1.00769,1.310514 h 0.29869 l -1.04386,-1.351338 c 0.53324,-0.0723 0.92604,-0.375097 0.92604,-0.903821 v -0.0088 c 0,-0.22595 -0.0901,-0.438435 -0.23926,-0.587562 -0.1898,-0.189797 -0.50175,-0.311608 -0.89039,-0.311608 z m 4.84467,0 v 3.163114 h 0.23461 v -3.163114 z m 7.18974,0 v 3.163114 h 0.23461 v -1.179256 h 0.85421 c 0.65978,0 1.23352,-0.343397 1.23352,-1.00769 v -0.0093 c 0,-0.610066 -0.47868,-0.966866 -1.17461,-0.966866 z m 4.56406,0 v 3.163114 h 2.27273 v -0.217041 h -2.0376 v -1.26969 h 1.81178 V 75.72304 h -1.81178 v -1.242818 h 2.01538 v -0.216524 z m 4.30207,0 1.39164,3.185852 h 0.20826 l 1.39164,-3.185852 h -0.24856 l -1.24282,2.9099 -1.23817,-2.9099 z m 5.20588,0 v 3.163114 h 0.23513 V 76.6227 l 0.786,-0.795817 1.30172,1.599902 h 0.30696 l -1.44125,-1.766817 1.38286,-1.396297 h -0.32091 l -2.01538,2.078426 v -2.078426 z m 9.48521,0 1.39216,3.185852 h 0.20774 l 1.39165,-3.185852 h -0.24857 l -1.2423,2.9099 -1.23868,-2.9099 z m 18.15806,0 v 3.163114 h 0.23513 v -1.310514 h 1.03456 l 1.00769,1.310514 h 0.29818 l -1.04387,-1.351338 c 0.53325,-0.0723 0.92656,-0.375097 0.92656,-0.903821 v -0.0088 c 0,-0.22595 -0.0901,-0.438435 -0.23926,-0.587562 -0.1898,-0.189797 -0.50175,-0.311608 -0.89039,-0.311608 z m 15.01666,0 v 3.163114 h 0.22582 v -2.810681 l 2.22777,2.810681 h 0.17622 v -3.163114 h -0.22583 v 2.75177 l -2.18281,-2.75177 z m 5.14697,0 v 3.163114 h 0.23513 v -3.163114 z m 2.6665,0 v 0.21239 h 2.08773 l -2.16472,2.819466 v 0.131258 h 2.49907 v -0.21239 h -2.16473 l 2.16473,-2.819983 v -0.130741 z m 14.5557,0 v 3.163114 h 2.27274 v -0.217041 h -2.03761 v -1.26969 h 1.81178 V 75.72304 h -1.81178 v -1.242818 h 2.01538 v -0.216524 z m -59.03257,0.15813 c 0.78179,0 1.35134,0.64138 1.35134,1.423169 v 0.0093 c 0,0.781788 -0.56025,1.414383 -1.34204,1.414383 -0.78178,0 -1.35134,-0.641897 -1.35134,-1.423685 v -0.0088 c 0,-0.781788 0.56025,-1.414384 1.34204,-1.414384 z m 17.7059,0 c 0.78179,0 1.35134,0.64138 1.35134,1.423169 v 0.0093 c 0,0.781788 -0.56025,1.414383 -1.34204,1.414383 -0.78179,0 -1.35134,-0.641897 -1.35134,-1.423685 v -0.0088 c 0,-0.781788 0.56026,-1.414384 1.34204,-1.414384 z m -54.137783,0.05839 h 0.894523 c 0.56939,0 0.95808,0.262167 0.95808,0.763778 v 0.0093 c 0,0.469977 -0.39748,0.777214 -0.98496,0.777214 h -0.867643 z m 4.564063,0 h 1.08004 c 0.57391,0 0.90847,0.266645 0.90847,0.691431 v 0.0093 c 0,0.45642 -0.39319,0.722954 -0.92191,0.722954 h -1.0666 z m 12.03389,0 h 0.89504 c 0.5694,0 0.95808,0.262167 0.95808,0.763778 v 0.0093 c 0,0.469977 -0.398,0.777214 -0.98547,0.777214 h -0.86765 z m 41.7158,0 h 1.08004 c 0.57392,0 0.90795,0.266645 0.90795,0.691431 v 0.0093 c 0,0.45642 -0.39318,0.722954 -0.92191,0.722954 h -1.06608 z m -12.32793,0.01809 0.83147,1.830379 h -1.66759 z m 23.30452,0 0.83148,1.830379 h -1.6676 z m 17.66921,0 0.83147,1.830379 h -1.6676 z"
       clip-path="url(#clipPath4065)" />
    <g
       id="g1426"
       transform="matrix(0.35277777,0,0,-0.35277777,108.80745,45.089933)"
       clip-path="url(#clipPath2325)" />
    <g
       id="g1430"
       transform="matrix(0.35277777,0,0,-0.35277777,113.66506,41.129446)"
       clip-path="url(#clipPath2319)" />
    <g
       id="g1434"
       transform="matrix(0.35277777,0,0,-0.35277777,122.08004,41.129446)"
       clip-path="url(#clipPath2313)" />
    <g
       id="g1438"
       transform="matrix(0.35277777,0,0,-0.35277777,133.16464,39.322166)"
       clip-path="url(#clipPath2307)" />
    <g
       id="g1442"
       transform="matrix(0.35277777,0,0,-0.35277777,137.11374,47.41192)"
       clip-path="url(#clipPath2301)" />
    <g
       id="g1448"
       transform="matrix(0.35277777,0,0,-0.35277777,146.93296,44.959023)"
       clip-path="url(#clipPath2289)" />
    <g
       id="g1452"
       transform="matrix(0.35277777,0,0,-0.35277777,154.44017,41.129446)"
       clip-path="url(#clipPath2283)" />
    <g
       id="g1456"
       transform="matrix(0.35277777,0,0,-0.35277777,168.6598,44.603143)"
       clip-path="url(#clipPath2277)" />
    <g
       id="g1460"
       transform="matrix(0.35277777,0,0,-0.35277777,175.69916,44.528033)"
       clip-path="url(#clipPath2271)" />
    <g
       id="g1464"
       transform="matrix(0.35277777,0,0,-0.35277777,180.06066,41.129446)"
       clip-path="url(#clipPath2265)" />
    <g
       id="g1468"
       transform="matrix(0.35277777,0,0,-0.35277777,193.54132,44.425373)"
       clip-path="url(#clipPath2259)" />
    <g
       id="g1472"
       transform="matrix(0.35277777,0,0,-0.35277777,105.81403,68.001181)"
       clip-path="url(#clipPath2253)" />
    <g
       id="g1476"
       transform="matrix(0.35277777,0,0,-0.35277777,117.37025,49.90168)"
       clip-path="url(#clipPath2247)" />
    <g
       id="g1480"
       transform="matrix(0.35277777,0,0,-0.35277777,128.81761,62.164164)"
       clip-path="url(#clipPath2241)" />
    <g
       id="g1484"
       transform="matrix(0.35277777,0,0,-0.35277777,134.38765,68.763918)"
       clip-path="url(#clipPath2235)" />
    <g
       id="g1488"
       transform="matrix(0.35277777,0,0,-0.35277777,149.81339,52.976777)"
       clip-path="url(#clipPath2229)" />
    <g
       id="g1492"
       transform="matrix(0.35277777,0,0,-0.35277777,161.05645,58.301524)"
       clip-path="url(#clipPath2223)" />
    <g
       id="g1496"
       transform="matrix(0.35277777,0,0,-0.35277777,171.25395,70.601188)"
       clip-path="url(#clipPath2217)" />
    <g
       id="g1500"
       transform="matrix(0.35277777,0,0,-0.35277777,193.22985,49.90168)"
       clip-path="url(#clipPath2211)" />
    <path
       d="M 166.498,522.76 H 279.884 V 636.146 H 166.498 Z"
       style="fill:#2744a0;fill-opacity:1;fill-rule:nonzero;stroke:none"
       id="path1504"
       clip-path="url(#clipPath2205)"
       transform="matrix(0.35277777,0,0,-0.35277777,-2.0816401,263.32931)" />
    <g
       id="g1506"
       transform="matrix(0.35277777,0,0,-0.35277777,87.336219,51.983696)"
       clip-path="url(#clipPath2198)">
      <path
         id="path1508"
         style="fill:#ffffff;fill-opacity:1;fill-rule:evenodd;stroke:none"
         d="m -13.76208,21.898512 c -59.064941,-0.823999 -65.195327,-40.645821 -66.382326,-52.27881 -2.217998,-21.732978 12.274585,-29.479201 22.038575,-30.804199 9.99199,0 18.11345,0.0061 26.002442,0.01611 10.14099,0.011 19.894201,0.02344 32.74218809,0.02344 0,17.652983 0.33984376,35.303586 0.33984376,52.9555679 H -16.741572 c 0.211999,-23.1729769 -10.54276,-36.9114869 -16.322755,-35.1254889 -8.828991,2.729997 -8.738955,15.238443 -7.105957,24.669434 2.690997,15.5389844 14.183036,29.295909 25.749024,31.253907 C -0.43927381,14.977471 0.51512669,6.8175556 1.2720473e-4,5.6244465e-4 H 19.817999 C 18.617,15.258547 10.941895,22.242512 -13.76208,21.898512 Z m 30.701661,-30.7880865 -2.58252,-0.04541 -2.846191,-9.0043945 -2.8476567,8.9047851 -2.644043,-0.04541 4.4033207,-12.7294931 2.115234,0.03809 z m -4.262696,-19.6010745 -2.395019,-0.04102 v -12.714844 l 2.395019,0.04102 z m -1.725586,-19.555665 -4.2480466,-0.07471 v -12.714844 l 4.2480466,0.07471 c 3.422527,0.0597 5.786133,2.8802 5.786133,6.458497 v 0.03516 c 0,3.578296 -2.363606,6.280921 -5.786133,6.221191 z m 0,-2.52539 c 1.960178,0.0342 3.28125,-1.522575 3.28125,-3.774903 v -0.03662 c 0,-2.252328 -1.321072,-3.819794 -3.28125,-3.854004 l -1.8515622,-0.03223 v 7.665527 z" />
    </g>
    <g
       id="g1552"
       transform="matrix(0.35277777,0,0,-0.35277777,35.301229,55.180607)"
       clip-path="url(#clipPath2083)" />
    <g
       id="g1556"
       transform="matrix(0.35277777,0,0,-0.35277777,20.630968,71.942378)"
       clip-path="url(#clipPath2077)" />
    <g
       id="g1560"
       transform="matrix(0.35277777,0,0,-0.35277777,30.043326,71.942378)"
       clip-path="url(#clipPath2071)" />
    <g
       id="g1564"
       transform="matrix(0.35277777,0,0,-0.35277777,44.852753,64.137171)"
       clip-path="url(#clipPath2065)" />
  </g>
</svg>
